<svg xmlns="http://www.w3.org/2000/svg" version="1.1" xmlns:xlink="http://www.w3.org/1999/xlink" width="512" height="512" x="0" y="0" viewBox="0 0 24 24" style="enable-background:new 0 0 512 512" xml:space="preserve" class=""><g><path d="M22.713 4.077A2.993 2.993 0 0 0 20.41 3H4.242L4.2 2.649A3 3 0 0 0 1.222 0H1a1 1 0 0 0 0 2h.222a1 1 0 0 1 .993.883l1.376 11.7A5 5 0 0 0 8.557 19H19a1 1 0 0 0 0-2H8.557a3 3 0 0 1-2.82-2h11.92a5 5 0 0 0 4.921-4.113l.785-4.354a2.994 2.994 0 0 0-.65-2.456ZM21.4 6.178l-.786 4.354A3 3 0 0 1 17.657 13H5.419l-.941-8H20.41a1 1 0 0 1 .99 1.178Z" fill="#000000" opacity="1" data-original="#000000" class=""></path><circle cx="7" cy="22" r="2" fill="#000000" opacity="1" data-original="#000000" class=""></circle><circle cx="17" cy="22" r="2" fill="#000000" opacity="1" data-original="#000000" class=""></circle></g></svg>